<svg xmlns="http://www.w3.org/2000/svg" xmlns:xlink="http://www.w3.org/1999/xlink" viewBox="0 0 1001 1001"><defs><symbol id="Add" data-name="Add" viewBox="0 0 84.81 86.56"><g id="Add-3" data-name="Add"><g id="Gruppe_4" data-name="Gruppe 4"><g id="Gruppe_2" data-name="Gruppe 2"><line id="Linie_1" data-name="Linie 1" x1="4" y1="42.41" x2="80.82" y2="42.41" style="fill:none;stroke:#fff;stroke-linecap:round;stroke-miterlimit:10;stroke-width:8px"/></g><g id="Gruppe_3" data-name="Gruppe 3"><line id="Linie_2" data-name="Linie 2" x1="42.41" y1="4" x2="42.41" y2="82.56" style="fill:none;stroke:#fff;stroke-linecap:round;stroke-miterlimit:10;stroke-width:8px"/></g></g></g></symbol><symbol id="Details" data-name="Details" viewBox="0 0 71.67 14.34"><g id="Details-3" data-name="Details"><circle id="Ellipse_1" data-name="Ellipse 1" cx="7.17" cy="7.17" r="7.17" style="fill:#eee"/><circle id="Ellipse_2" data-name="Ellipse 2" cx="35.83" cy="7.17" r="7.17" style="fill:#eee"/><circle id="Ellipse_3" data-name="Ellipse 3" cx="64.5" cy="7.17" r="7.17" style="fill:#eee"/></g></symbol><symbol id="File" data-name="File" viewBox="0 0 91.77 71.63"><g id="File-3" data-name="File"><rect id="Rechteck_1" data-name="Rechteck 1" x="6.77" y="14.99" width="82" height="53.63" rx="8.63" ry="8.63" style="fill:none;stroke:#fff;stroke-miterlimit:10;stroke-width:6px"/><path id="Pfad_2" data-name="Pfad 2" d="M69.77,12.28,61.94,3H3L7,62.28" style="fill:none;stroke:#fff;stroke-linecap:round;stroke-linejoin:round;stroke-width:6px"/></g><line x1="33.77" y1="49" x2="62.77" y2="49" style="fill:none;stroke:#fff;stroke-linecap:round;stroke-linejoin:round;stroke-width:8px"/></symbol><symbol id="Grid" data-name="Grid" viewBox="0 0 82.14 82.14"><line id="Linie_3" data-name="Linie 3" x1="5.29" y1="41.15" x2="76.07" y2="41.15" style="fill:none;stroke:#fff;stroke-linecap:round;stroke-miterlimit:10;stroke-width:6px"/><line id="Linie_6" data-name="Linie 6" x1="40.68" y1="5.38" x2="40.68" y2="76.54" style="fill:none;stroke:#fff;stroke-linecap:round;stroke-miterlimit:10;stroke-width:6px"/><rect x="3" y="3" width="76.14" height="76.14" rx="4.08" ry="4.08" style="fill:none;stroke:#fff;stroke-linecap:round;stroke-miterlimit:10;stroke-width:6px"/></symbol><symbol id="Keyboard" data-name="Keyboard" viewBox="0 0 82 85.62"><g id="Keyboard-3" data-name="Keyboard"><rect x="4" y="4" width="74" height="74" rx="12" ry="12" style="fill:none;stroke:#eee;stroke-width:8px"/></g><text transform="translate(22.71 64.57)" style="font-size:69.64266967773438px;fill:#fff;font-family:Consolas, Consolas">B</text></symbol><symbol id="Loop" data-name="Loop" viewBox="0 0 90.7 77.31"><g id="Loop-3" data-name="Loop"><path id="Pfad_5" data-name="Pfad 5" d="M75.28,18.82A35.7,35.7,0,0,0,25.75,9.05C15.89,15.66,12.47,27.11,8.47,39.11" style="fill:none;stroke:#fff;stroke-linecap:round;stroke-width:6px"/><path id="Pfad_6" data-name="Pfad 6" d="M3,26.72,7.92,40.78l12.41-9.11" style="fill:none;stroke:#fff;stroke-linecap:round;stroke-linejoin:round;stroke-width:6px"/><path id="Pfad_7" data-name="Pfad 7" d="M15.05,58.41a35.68,35.68,0,0,0,49.48,9.91c9.94-6.62,14.94-20.21,16.91-32.71" style="fill:none;stroke:#fff;stroke-linecap:round;stroke-width:6px"/><path id="Pfad_8" data-name="Pfad 8" d="M87.7,49.06,82.17,35,70.1,44.91" style="fill:none;stroke:#fff;stroke-linecap:round;stroke-linejoin:round;stroke-width:6px"/></g></symbol><symbol id="Manage" data-name="Manage" viewBox="0 0 80.86 80.89"><g id="Manage-3" data-name="Manage"><path id="Rechteck_4" data-name="Rechteck 4" d="M2.88,69.43,36.62,35.69a4.68,4.68,0,0,1,6.64,0l1.94,1.93a4.7,4.7,0,0,1,0,6.64L11.45,78a4.7,4.7,0,0,1-6.64,0L2.88,76.08A4.7,4.7,0,0,1,2.88,69.43Z" style="fill:#fff;stroke:#fff;stroke-linecap:round;stroke-width:3px"/><path d="M56.71,4.5A19.65,19.65,0,1,0,76.36,24.15" style="fill:none;stroke:#fff;stroke-linecap:round;stroke-width:9px"/></g></symbol><symbol id="Pause" data-name="Pause" viewBox="0 0 51 60"><g id="Pause-3" data-name="Pause"><path id="Rechteck_11" data-name="Rechteck 11" d="M4.08,1.5H14.42A2.82,2.82,0,0,1,17,4.5v51a2.82,2.82,0,0,1-2.58,3H4.08a2.82,2.82,0,0,1-2.58-3V4.5A2.82,2.82,0,0,1,4.08,1.5Z" style="fill:#fff;stroke:#fff;stroke-width:3px"/><path id="Rechteck_12" data-name="Rechteck 12" d="M35.75,1.5h11a2.88,2.88,0,0,1,2.75,3v51a2.88,2.88,0,0,1-2.75,3h-11a2.88,2.88,0,0,1-2.75-3V4.5A2.88,2.88,0,0,1,35.75,1.5Z" style="fill:#fff;stroke:#fff;stroke-width:3px"/></g></symbol><symbol id="Play" data-name="Play" viewBox="0 0 43.16 61.05"><path id="Play-3" data-name="Play" d="M39.16,31,4,57.05V4Z" style="fill:#fff;stroke:#fff;stroke-linecap:round;stroke-linejoin:round;stroke-width:8px"/></symbol><symbol id="Preset" data-name="Preset" viewBox="0 0 80.4 54.74"><circle id="Ellipse_4" data-name="Ellipse 4" cx="22.88" cy="11.34" r="8.34" style="fill:none;stroke:#fff;stroke-linecap:round;stroke-miterlimit:10;stroke-width:6px"/><line id="Linie_11" data-name="Linie 11" x1="3" y1="11.34" x2="12.62" y2="11.34" style="fill:none;stroke:#fff;stroke-linecap:round;stroke-miterlimit:10;stroke-width:6px"/><line id="Linie_12" data-name="Linie 12" x1="33.14" y1="11.34" x2="77.4" y2="11.34" style="fill:none;stroke:#fff;stroke-linecap:round;stroke-miterlimit:10;stroke-width:6px"/><circle id="Ellipse_6" data-name="Ellipse 6" cx="56.88" cy="43.41" r="8.34" style="fill:none;stroke:#fff;stroke-linecap:round;stroke-miterlimit:10;stroke-width:6px"/><line id="Linie_15" data-name="Linie 15" x1="77.4" y1="43.41" x2="67.14" y2="43.41" style="fill:none;stroke:#fff;stroke-linecap:round;stroke-miterlimit:10;stroke-width:6px"/><line id="Linie_16" data-name="Linie 16" x1="46.61" y1="43.41" x2="3" y2="43.41" style="fill:none;stroke:#fff;stroke-linecap:round;stroke-miterlimit:10;stroke-width:6px"/></symbol><symbol id="Save" data-name="Save" viewBox="0 0 77.9 80.83"><g id="Save-3" data-name="Save"><path id="Pfad_13" data-name="Pfad 13" d="M63.51,77.83H14.06A11,11,0,0,1,3,67V14.06A11,11,0,0,1,13.88,3h50L74.9,14.06v53A11.41,11.41,0,0,1,63.51,77.83Z" style="fill:none;stroke:#fff;stroke-linecap:round;stroke-linejoin:round;stroke-width:6px"/><path id="Pfad_12" data-name="Pfad 12" d="M16.76,76.53V51.29c0-8.13,4.88-11.38,11.06-11.38H50.08c6.18,0,11.06,3.25,11.06,11.38V76.53" style="fill:none;stroke:#fff;stroke-linecap:round;stroke-linejoin:round;stroke-width:6px"/><path id="Pfad_14" data-name="Pfad 14" d="M53,4.63v6.83a5.7,5.7,0,0,1-5.23,6.16,4.42,4.42,0,0,1-.63,0H30.84A5.41,5.41,0,0,1,25,12.77a5.23,5.23,0,0,1,0-1.31V4.63" style="fill:none;stroke:#fff;stroke-linecap:round;stroke-linejoin:round;stroke-width:6px"/></g></symbol><symbol id="Scale" data-name="Scale" viewBox="0 0 81.21 61.58"><g id="Scale-3" data-name="Scale"><path id="Pfad_15" data-name="Pfad 15" d="M50.5,4.25,75.72,4A1.22,1.22,0,0,1,77,5.21l.25,25.29" style="fill:none;stroke:#eee;stroke-linecap:round;stroke-width:8px"/><path id="Pfad_16" data-name="Pfad 16" d="M31,57.33,5.5,57.58a1.23,1.23,0,0,1-1.25-1.21h0L4,30.83" style="fill:none;stroke:#eee;stroke-linecap:round;stroke-width:8px"/></g></symbol><symbol id="Shader" data-name="Shader" viewBox="0 0 90 90"><g id="Shader-3" data-name="Shader"><circle id="Ellipse_1-2" data-name="Ellipse 1-2" cx="45" cy="45" r="42" style="fill:none;stroke:#fff;stroke-miterlimit:10;stroke-width:6px"/><g id="Ellipse_2-2" data-name="Ellipse 2-2"><ellipse cx="67.88" cy="24.76" rx="8.57" ry="19.16" transform="translate(0.4 50.59) rotate(-40.99)" style="fill:#fff;stroke:#fff;stroke-miterlimit:10;stroke-width:6px"/></g></g></symbol><symbol id="Shading" data-name="Shading" viewBox="0 0 93.2 93.2"><g id="Shading-3" data-name="Shading"><circle id="Ellipse_8" data-name="Ellipse 8" cx="46.6" cy="46.6" r="43.6" style="fill:none;stroke:#fff;stroke-linecap:round;stroke-miterlimit:10;stroke-width:6px"/><ellipse id="Ellipse_9" data-name="Ellipse 9" cx="59.3" cy="33.33" rx="10.21" ry="18.38" transform="translate(-6.2 51.7) rotate(-45)" style="fill:#fff"/></g></symbol><symbol id="Snapshot" data-name="Snapshot" viewBox="0 0 83.18 73.2"><g id="Snapshot-3" data-name="Snapshot"><rect x="3" y="13.75" width="77.18" height="56.46" rx="8.06" ry="8.06" style="fill:none;stroke:#fff;stroke-linecap:round;stroke-linejoin:round;stroke-width:6px"/><circle cx="41.59" cy="41.98" r="15.96" style="fill:none;stroke:#fff;stroke-linecap:round;stroke-linejoin:round;stroke-width:6px"/><path d="M54.55,10.38h0C54.55,7.42,53.13,3,50.18,3H32.91C30,3,28.54,7.42,28.54,10.37h0" style="fill:none;stroke:#fff;stroke-linecap:square;stroke-linejoin:round;stroke-width:6px"/></g></symbol><symbol id="Viewer" data-name="Viewer" viewBox="0 0 79 59.59"><path id="Pfad_17" data-name="Pfad 17" d="M76,34.8V50.09a6.5,6.5,0,0,1-6.5,6.5H9.5A6.5,6.5,0,0,1,3,50.09V9.5A6.5,6.5,0,0,1,9.5,3h30" style="fill:none;stroke:#fff;stroke-linecap:round;stroke-width:6px"/><path id="Pfad_18" data-name="Pfad 18" d="M39.5,36.17S55.92,16.72,74.67,4.05" style="fill:none;stroke:#fff;stroke-linecap:round;stroke-width:6px"/><path id="Pfad_19" data-name="Pfad 19" d="M59.84,3.15,75.1,3a.74.74,0,0,1,.75.73h0L76,19" style="fill:none;stroke:#fff;stroke-linecap:round;stroke-width:6px"/></symbol><symbol id="Wireframe" data-name="Wireframe" viewBox="0 0 76 76"><g id="Wireframe-3" data-name="Wireframe"><line id="Linie_26" data-name="Linie 26" x1="69.13" y1="6.72" x2="6.72" y2="69.13" style="fill:none;stroke:#fff;stroke-linecap:round;stroke-miterlimit:10;stroke-width:6px"/><rect x="3" y="3" width="70" height="70" rx="8" ry="8" style="fill:none;stroke:#fff;stroke-linecap:round;stroke-miterlimit:10;stroke-width:6px"/></g></symbol><symbol id="Object" data-name="Object" viewBox="0 0 94 99.12"><polygon points="47 96.12 47 40.55 91 21.83 91 77.29 47 96.12" style="fill:none;stroke:#fff;stroke-linecap:round;stroke-linejoin:round;stroke-width:6px"/><polygon points="47 40.55 3 21.83 47 3 91 21.83 47 40.55" style="fill:none;stroke:#fff;stroke-linecap:round;stroke-linejoin:round;stroke-width:6px"/><polygon points="3 77.29 3 21.83 47 40.55 47 96.12 3 77.29" style="fill:none;stroke:#fff;stroke-linecap:round;stroke-linejoin:round;stroke-width:6px"/><polygon points="47 96.12 3 77.39 47 58.56 91 77.39 47 96.12" style="fill:none;stroke:#fff;stroke-linecap:round;stroke-linejoin:round;stroke-width:6px"/><line x1="47" y1="3" x2="47" y2="58.56" style="fill:none;stroke:#fff;stroke-linecap:round;stroke-linejoin:round;stroke-width:6px"/></symbol><symbol id="Lock" data-name="Lock" viewBox="0 0 63.89 88.92"><g id="Lock-3" data-name="Lock"><path id="Rechteck_10" data-name="Rechteck 10" d="M12.58,36.18H51.31a9.48,9.48,0,0,1,9.58,9.38v31a9.48,9.48,0,0,1-9.58,9.38H12.58A9.48,9.48,0,0,1,3,76.54v-31A9.48,9.48,0,0,1,12.58,36.18Z" style="fill:none;stroke:#fff;stroke-miterlimit:10;stroke-width:6px"/><path id="Pfad_3" data-name="Pfad 3" d="M14.08,35.18V16.41C14.08,8.16,21.22,4,32.39,4S50.55,7.27,50.55,16.41V35.18" style="fill:none;stroke:#fff;stroke-linecap:square;stroke-width:8px"/></g></symbol><symbol id="Gyro" data-name="Gyro" viewBox="0 0 84.27 85.17"><g id="Gyro-3" data-name="Gyro"><ellipse cx="42.13" cy="42.59" rx="40.13" ry="40.59" style="fill:none;stroke:#fff;stroke-miterlimit:10;stroke-width:4px"/><path d="M36.78,30.19c1.41-.1,2.86-.14,4.32-.14,16.67,0,30.19,7.17,30.19,14.72,0,4.07-3.89,7.71-10.07,10.23" style="fill:none;stroke:#fff;stroke-linecap:round;stroke-miterlimit:10;stroke-width:4px"/><path d="M35,70.2c1.9,2.34,4.11,3.66,6.41,3.66,4.9,0,9.2-5.92,11.53-14.76.25-.94.48-1.92.69-2.93S54,54,54.2,52.85a65.51,65.51,0,0,0,.62-9.17c0-16.67-6-31.19-13.41-31.19-4.73,0-9.92,6.52-12.28,14.86" style="fill:none;stroke:#fff;stroke-linecap:round;stroke-miterlimit:10;stroke-width:4px"/><path d="M44.87,58.29c-1.08.05-2.17.07-3.29.07-16.67,0-30.18-6.17-30.18-13.72,0-4.61,4-8.7,11.71-11.18" style="fill:none;stroke:#fff;stroke-linecap:round;stroke-miterlimit:10;stroke-width:4px"/><ellipse cx="41.1" cy="44.64" rx="8.92" ry="3.66" style="fill:#fff"/></g></symbol><symbol id="Keyframe" data-name="Keyframe" viewBox="0 0 75.27 86.17"><g id="Kayframe"><g id="Ellipse_1-2-2" data-name="Ellipse 1"><circle cx="37.63" cy="48.54" r="37.63" style="fill:none"/><circle cx="37.63" cy="48.54" r="33.02" style="fill:none;stroke:#fff;stroke-width:6px"/></g><path id="Pfad_2-2" data-name="Pfad 2" d="M37.4,49.18,62.52,28.37" style="fill:none;stroke:#fff;stroke-linecap:round;stroke-width:6px"/><rect id="Rechteck_7" data-name="Rechteck 7" x="32.93" y="1.5" width="9.41" height="14.11" style="fill:#fff"/><line x1="24.28" y1="3" x2="52.28" y2="3" style="fill:none;stroke:#fff;stroke-linecap:round;stroke-miterlimit:10;stroke-width:6px"/><polygon id="Rechteck_9" data-name="Rechteck 9" points="3.42 21.83 13.56 12.02 20.1 18.79 9.95 28.6 3.42 21.83" style="fill:#fff"/></g></symbol><symbol id="Placeholder" data-name="Placeholder" viewBox="0 0 82 82"><rect x="2" y="2" width="78" height="78" rx="4" ry="4" style="fill:none;stroke:#fff;stroke-linecap:round;stroke-miterlimit:10;stroke-width:4px"/><line x1="4" y1="4" x2="78" y2="78" style="fill:none;stroke:#fff;stroke-linecap:round;stroke-miterlimit:10;stroke-width:4px"/><line x1="78" y1="4" x2="4" y2="78" style="fill:none;stroke:#fff;stroke-linecap:round;stroke-miterlimit:10;stroke-width:4px"/></symbol><symbol id="Author" data-name="Author" viewBox="0 0 46 89.05"><path d="M35,86.05H11a8,8,0,0,1-8-8L7,57.11c1.09-6.2,7.61-8,12-8h8c4.41,0,10.11,1.82,12,8L43,78A8,8,0,0,1,35,86.05Z" style="fill:none;stroke:#fff;stroke-linecap:round;stroke-miterlimit:10;stroke-width:6px"/><circle cx="23" cy="18.09" r="15.09" style="fill:none;stroke:#fff;stroke-linecap:round;stroke-miterlimit:10;stroke-width:6px"/></symbol><symbol id="Document" data-name="Document" viewBox="0 0 62 74"><path d="M59,16.75V63a8.18,8.18,0,0,1-8.31,8H11.31A8.18,8.18,0,0,1,3,63V11a8.18,8.18,0,0,1,8.31-8H43.42Z" style="fill:none;stroke:#fff;stroke-linecap:round;stroke-miterlimit:10;stroke-width:6px"/><line x1="16.5" y1="26" x2="31.46" y2="26" style="fill:none;stroke:#fff;stroke-linecap:round;stroke-miterlimit:10;stroke-width:7px"/><line x1="16.5" y1="39" x2="37" y2="39" style="fill:none;stroke:#fff;stroke-linecap:round;stroke-miterlimit:10;stroke-width:7px"/><line x1="16.5" y1="52" x2="28.14" y2="52" style="fill:none;stroke:#fff;stroke-linecap:round;stroke-miterlimit:10;stroke-width:7px"/></symbol><symbol id="Import" data-name="Import" viewBox="0 0 66.41 78"><path id="Pfad_18-2" data-name="Pfad 18" d="M31.73,41.5A156.44,156.44,0,0,1,63.41,66.88" style="fill:none;stroke:#fff;stroke-linecap:round;stroke-width:6px"/><path id="Pfad_19-2" data-name="Pfad 19" d="M31.9,55,28.14,40.17h0a.73.73,0,0,1,.53-.89l14.79-3.77" style="fill:none;stroke:#fff;stroke-linecap:round;stroke-width:6px"/><path d="M50.69,75H11.31A8.18,8.18,0,0,1,3,67V11a8.18,8.18,0,0,1,8.31-8H43.42L59,16.75V40.43" style="fill:none;stroke:#fff;stroke-linecap:round;stroke-miterlimit:10;stroke-width:6px"/></symbol><symbol id="SaveAs" data-name="SaveAs" viewBox="0 0 66.53 67.11"><g id="Save-5" data-name="Save"><path id="Pfad_13-2" data-name="Pfad 13" d="M63.53,32.42V55.07a9.61,9.61,0,0,1-9.58,9H12.31A9.24,9.24,0,0,1,3,55V32.42" style="fill:none;stroke:#fff;stroke-linecap:round;stroke-linejoin:round;stroke-width:6px"/></g><path id="Pfad_18-3" data-name="Pfad 18" d="M33.07,37.12C34.47,14.53,39.3,3,39.3,3" style="fill:none;stroke:#fff;stroke-linecap:round;stroke-width:6px"/><path id="Pfad_19-3" data-name="Pfad 19" d="M44.58,31.29,33.5,41.79h0a.74.74,0,0,1-1,0L22,30.68" style="fill:none;stroke:#fff;stroke-linecap:round;stroke-width:6px"/></symbol><symbol id="Video" data-name="Video" viewBox="0 0 78.39 59.09"><path d="M8.26,5l61.94.09a3.2,3.2,0,0,1,3.19,3.2L73.32,50.9a3.19,3.19,0,0,1-3.19,3.19L8.19,54A3.19,3.19,0,0,1,5,50.81L5.06,8.19A3.2,3.2,0,0,1,8.25,5h0m0-5A8.19,8.19,0,0,0,.06,8.18L0,50.8A8.19,8.19,0,0,0,8.18,59l61.94.09h0a8.19,8.19,0,0,0,8.19-8.18l.07-42.62A8.2,8.2,0,0,0,70.2.09L8.27,0Z" style="fill:#fff"/><path d="M.56,12.22v-.17A2.52,2.52,0,0,1,3.08,9.54l72.3.1a2.52,2.52,0,0,1,2.51,2.52v.17a2.51,2.51,0,0,1-2.51,2.51l-72.3-.11A2.51,2.51,0,0,1,.56,12.22Z" style="fill:#fff"/><path d="M.5,46.94v-.18A2.51,2.51,0,0,1,3,44.25l72.31.11a2.5,2.5,0,0,1,2.5,2.51v.18a2.51,2.51,0,0,1-2.51,2.5L3,49.45A2.51,2.51,0,0,1,.5,46.94Z" style="fill:#fff"/></symbol><symbol id="SkipForward" data-name="SkipForward" viewBox="0 0 78.32 61.05"><path id="Play-5" data-name="Play" d="M39.16,31,4,57.05V4Z" style="fill:#fff;stroke:#fff;stroke-linecap:round;stroke-linejoin:round;stroke-width:8px"/><path id="Play-6" data-name="Play" d="M74.32,31,39.16,57.05V4Z" style="fill:#fff;stroke:#fff;stroke-linecap:round;stroke-linejoin:round;stroke-width:8px"/><line x1="74.32" y1="4" x2="74.32" y2="57.05" style="fill:none;stroke:#fff;stroke-linecap:round;stroke-linejoin:round;stroke-width:8px"/></symbol><symbol id="SkipBackward" data-name="SkipBackward" viewBox="0 0 71.14 61.05"><use width="78.32" height="61.05" transform="matrix(-0.9, 0, 0, 1, 70.73, 0)" xlink:href="#SkipForward"/></symbol><symbol id="Sequence" data-name="Sequence" viewBox="0 0 76.82 62.55"><rect x="3" y="3" width="33.6" height="55.97" rx="6.09" ry="6.09" style="fill:none;stroke:#fff;stroke-miterlimit:10;stroke-width:6px"/><path d="M76.82,59.55H55.35a6.06,6.06,0,0,1-6.06-6.06V9.64a6.06,6.06,0,0,1,6.06-6.06H76.82" style="fill:none;stroke:#fff;stroke-miterlimit:10;stroke-width:6px"/><path d="M76.82,22.75H49.29V9.64a6.06,6.06,0,0,1,6.06-6.06H76.82" style="fill:#fff;stroke:#fff;stroke-miterlimit:10;stroke-width:6px"/><path d="M9.09,3H30.5A6.09,6.09,0,0,1,36.6,9.09V22.75a0,0,0,0,1,0,0H3a0,0,0,0,1,0,0V9.09A6.09,6.09,0,0,1,9.09,3Z" style="fill:#fff;stroke:#fff;stroke-miterlimit:10;stroke-width:6px"/></symbol><symbol id="Close" data-name="Close" viewBox="0 0 54.81 54.81"><use id="Add-8" data-name="Add" width="84.82" height="86.56" transform="translate(27.93 -23.65) rotate(45) scale(0.84)" xlink:href="#Add"/></symbol><symbol id="Build" data-name="Build" viewBox="0 0 69.32 72.11"><rect x="35.46" y="44.63" width="25.48" height="25.48" rx="4" ry="4" style="fill:none;stroke:#fff;stroke-linecap:round;stroke-miterlimit:10;stroke-width:4px"/><rect x="2" y="44.63" width="25.48" height="25.48" rx="4" ry="4" style="fill:none;stroke:#fff;stroke-linecap:round;stroke-miterlimit:10;stroke-width:4px"/><rect x="2" y="11.17" width="25.48" height="25.48" rx="4" ry="4" style="fill:none;stroke:#fff;stroke-linecap:round;stroke-miterlimit:10;stroke-width:4px"/><path d="M56.39,32,39.85,26.33a4,4,0,0,1-2.5-5.07L43,4.71a4,4,0,0,1,5.07-2.5L64.61,7.85a4,4,0,0,1,2.49,5.07L61.47,29.47A4,4,0,0,1,56.39,32Z" style="fill:none;stroke:#fff;stroke-linecap:round;stroke-miterlimit:10;stroke-width:4px"/></symbol><symbol id="Pivot" data-name="Pivot" viewBox="0 0 63.89 65.37"><g id="Gyro-5" data-name="Gyro"><path d="M27.38,19.7c1.42-.1,2.86-.14,4.32-.14,16.68,0,30.19,7.17,30.19,14.72C61.89,38.34,58,42,51.83,44.5" style="fill:none;stroke:#fff;stroke-linecap:round;stroke-miterlimit:10;stroke-width:4px"/><path d="M25.6,59.71c1.9,2.34,4.12,3.66,6.41,3.66,4.9,0,9.2-5.92,11.54-14.76.24-.94.48-1.92.68-2.93s.41-2.18.57-3.32a67.07,67.07,0,0,0,.63-9.17C45.43,16.51,39.42,2,32,2,27.28,2,22.1,8.52,19.73,16.86" style="fill:none;stroke:#fff;stroke-linecap:round;stroke-miterlimit:10;stroke-width:4px"/><path d="M35.47,47.8c-1.08.05-2.17.07-3.28.07C15.51,47.87,2,41.7,2,34.15,2,29.54,6,25.45,13.71,23" style="fill:none;stroke:#fff;stroke-linecap:round;stroke-miterlimit:10;stroke-width:4px"/></g></symbol><symbol id="Axis" data-name="Axis" viewBox="0 0 67.38 74.55"><polyline points="16.13 2 16.13 47.08 65.38 47.08" style="fill:none;stroke:#fff;stroke-linecap:round;stroke-miterlimit:10;stroke-width:4px"/><line x1="2" y1="72.55" x2="16.13" y2="47.08" style="fill:none;stroke:#fff;stroke-linecap:round;stroke-miterlimit:10;stroke-width:4px"/></symbol><symbol id="Export" data-name="Export" viewBox="0 0 67.91 70.99"><rect x="35.46" y="43.51" width="25.48" height="25.48" rx="4" ry="4" style="fill:none;stroke:#fff;stroke-linecap:round;stroke-miterlimit:10;stroke-width:4px"/><rect x="2" y="43.51" width="25.48" height="25.48" rx="4" ry="4" style="fill:none;stroke:#fff;stroke-linecap:round;stroke-miterlimit:10;stroke-width:4px"/><rect x="2" y="10.05" width="25.48" height="25.48" rx="4" ry="4" style="fill:none;stroke:#fff;stroke-linecap:round;stroke-miterlimit:10;stroke-width:4px"/><path id="Pfad_18-4" data-name="Pfad 18" d="M61,7.63c-16.73,15.23-22.7,26.22-22.7,26.22" style="fill:none;stroke:#fff;stroke-linecap:round;stroke-width:6px"/><path id="Pfad_19-4" data-name="Pfad 19" d="M63.66,20.25,64.91,5h0a.74.74,0,0,0-.68-.79L49,3" style="fill:none;stroke:#fff;stroke-linecap:round;stroke-width:6px"/></symbol><symbol id="Eye_visible" data-name="Eye_visible" viewBox="0 0 78.6 45.56"><circle cx="39.3" cy="22.78" r="15.18" style="fill:#fff"/><path d="M39.3,45.56C18.28,45.56,1.68,24.91,1,24L0,22.78l1-1.25C1.68,20.66,18.28,0,39.3,0S76.92,20.66,77.61,21.53l1,1.25-1,1.25C76.92,24.91,60.32,45.56,39.3,45.56ZM5.2,22.78c3.88,4.38,17.86,18.76,34.1,18.76S69.53,27.16,73.4,22.78C69.52,18.41,55.54,4,39.3,4S9.07,18.4,5.2,22.78Z" style="fill:#fff"/></symbol><symbol id="Eye_hidden" data-name="Eye_hidden" viewBox="0 0 78.6 45.56"><path d="M39.3,11.62A11.16,11.16,0,1,1,28.14,22.78,11.17,11.17,0,0,1,39.3,11.62m0-4A15.18,15.18,0,1,0,54.48,22.78,15.18,15.18,0,0,0,39.3,7.6Z" style="fill:#fff"/><path d="M39.3,45.56C18.28,45.56,1.68,24.91,1,24L0,22.78l1-1.25C1.68,20.66,18.28,0,39.3,0S76.92,20.66,77.61,21.53l1,1.25-1,1.25C76.92,24.91,60.32,45.56,39.3,45.56ZM5.2,22.78c3.88,4.38,17.86,18.76,34.1,18.76S69.53,27.16,73.4,22.78C69.52,18.41,55.54,4,39.3,4S9.07,18.4,5.2,22.78Z" style="fill:#fff"/></symbol><symbol id="Cogwheel" data-name="Cogwheel" viewBox="0 0 73.08 73.08"><path d="M41.94,73.08H31.14a5.31,5.31,0,0,1-5.31-5.31v-3c-.57-.22-1.13-.45-1.68-.7L22,66.2a5.33,5.33,0,0,1-7.52,0L6.89,58.56a5.32,5.32,0,0,1,0-7.51L9,48.93q-.37-.82-.69-1.68h-3A5.31,5.31,0,0,1,0,41.94V31.14a5.31,5.31,0,0,1,5.31-5.31h3Q8.63,25,9,24.15L6.89,22a5.32,5.32,0,0,1,0-7.51l7.63-7.63a5.3,5.3,0,0,1,7.51,0L24.15,9q.83-.37,1.68-.69v-3A5.31,5.31,0,0,1,31.14,0h10.8a5.31,5.31,0,0,1,5.31,5.31v3q.86.31,1.68.69l2.12-2.11a5.3,5.3,0,0,1,7.51,0l7.64,7.63a5.32,5.32,0,0,1,0,7.51l-2.12,2.12c.25.55.48,1.11.7,1.68h3a5.31,5.31,0,0,1,5.31,5.31v10.8a5.31,5.31,0,0,1-5.31,5.31h-3c-.22.57-.45,1.13-.7,1.68l2.12,2.12a5.32,5.32,0,0,1,0,7.51L58.56,66.2a5.32,5.32,0,0,1-7.51,0l-2.12-2.12c-.55.25-1.11.48-1.68.7v3A5.31,5.31,0,0,1,41.94,73.08Zm-10.11-6h9.42v-6.7l2.15-.64a23.13,23.13,0,0,0,4.7-1.94l2-1.07,4.74,4.74,6.66-6.66-4.74-4.74,1.07-2a24.25,24.25,0,0,0,2-4.7l.63-2.15h6.7V31.83h-6.7l-.63-2.15a24.25,24.25,0,0,0-2-4.7l-1.07-2,4.74-4.73-6.66-6.67-4.74,4.74-2-1.07a23.71,23.71,0,0,0-4.7-1.94l-2.15-.64V6H31.83v6.7l-2.15.64A24.22,24.22,0,0,0,25,15.28l-2,1.07-4.73-4.74-6.67,6.67L16.35,23l-1.07,2a23.61,23.61,0,0,0-1.94,4.7l-.64,2.15H6v9.42h6.7l.64,2.15a23.61,23.61,0,0,0,1.94,4.7l1.07,2-4.74,4.74,6.67,6.66L23,56.73l2,1.07a23.61,23.61,0,0,0,4.7,1.94l2.15.64Z" style="fill:#fff"/><path d="M36.54,26.28A10.27,10.27,0,1,1,26.28,36.54,10.28,10.28,0,0,1,36.54,26.28m0-6A16.27,16.27,0,1,0,52.81,36.54,16.26,16.26,0,0,0,36.54,20.28Z" style="fill:#fff"/></symbol></defs><title>gyro-icons</title><g id="Layer_1" data-name="Layer 1"><rect width="1001" height="1001" style="fill:#333"/><use id="Add-4" data-name="Add" width="84.82" height="86.56" transform="translate(316.88 116.25) scale(0.81)" xlink:href="#Add"/><use id="Details-4" data-name="Details" width="71.67" height="14.34" transform="translate(215 43)" xlink:href="#Details"/><use id="File-4" data-name="File" width="91.77" height="71.63" transform="translate(307.55 17.65) scale(0.93)" xlink:href="#File"/><use id="Grid-3" data-name="Grid" width="82.14" height="82.14" transform="translate(416.15 15.15) scale(0.85)" xlink:href="#Grid"/><use id="Keyboard-4" data-name="Keyboard" width="82" height="85.62" transform="translate(713.4 211.85) scale(0.9)" xlink:href="#Keyboard"/><use id="Loop-4" data-name="Loop" width="90.7" height="77.31" transform="translate(509.27 15.09) scale(0.92)" xlink:href="#Loop"/><use id="Manage-4" data-name="Manage" width="80.86" height="80.89" transform="translate(814.27 217.56) scale(0.89)" xlink:href="#Manage"/><use id="Pause-4" data-name="Pause" width="51" height="60" transform="translate(825 20)" xlink:href="#Pause"/><use id="Play-4" data-name="Play" width="43.16" height="61.05" transform="translate(928.84 19.02)" xlink:href="#Play"/><use id="Preset-3" data-name="Preset" width="80.4" height="54.74" transform="translate(114.38 129) scale(0.91)" xlink:href="#Preset"/><use id="Save-4" data-name="Save" width="77.9" height="80.83" transform="translate(219.58 117.26) scale(0.82)" xlink:href="#Save"/><use id="Scale-4" data-name="Scale" width="81.21" height="61.58" transform="translate(11.64 122) scale(0.94)" xlink:href="#Scale"/><use id="Shader-4" data-name="Shader" width="90" height="90" transform="translate(114.7 13.58) rotate(0.1) scale(0.81)" xlink:href="#Shader"/><use id="Shading-4" data-name="Shading" width="93.2" height="93.2" transform="translate(714.21 114.21) scale(0.78)" xlink:href="#Shading"/><use id="Snapshot-4" data-name="Snapshot" width="83.18" height="73.21" transform="translate(617.74 119.48) scale(0.82)" xlink:href="#Snapshot"/><use id="Viewer-3" data-name="Viewer" width="79" height="59.59" transform="translate(412 121.75) scale(0.97)" xlink:href="#Viewer"/><use id="Wireframe-4" data-name="Wireframe" width="76" height="76" transform="translate(523.46 121.46) scale(0.78)" xlink:href="#Wireframe"/><use id="Object-3" data-name="Object" width="94" height="99.12" transform="translate(13.68 11.71) scale(0.77)" xlink:href="#Object"/><use id="Lock-4" data-name="Lock" width="63.89" height="88.92" transform="translate(823.39 112) scale(0.85)" xlink:href="#Lock"/><use id="Gyro-4" data-name="Gyro" width="84.27" height="85.17" transform="translate(913.22 112.11) scale(0.89)" xlink:href="#Gyro"/><use id="Keyframe-3" data-name="Keyframe" width="75.27" height="86.17" transform="matrix(0.78, 0, 0, 0.78, 20.93, 216.86)" xlink:href="#Keyframe"/><use id="Placeholder-3" data-name="Placeholder" width="82" height="82" transform="translate(119 218) scale(0.78)" xlink:href="#Placeholder"/><use id="Author-3" data-name="Author" width="46" height="89.05" transform="translate(233.92 216.78) scale(0.78)" xlink:href="#Author"/><use id="Document-3" data-name="Document" width="62" height="74" transform="translate(320.85 214.91) scale(0.94)" xlink:href="#Document"/><use id="Import-3" data-name="Import" width="66.41" height="78" transform="translate(418.47 213.91) scale(0.91)" xlink:href="#Import"/><use id="SaveAs-3" data-name="SaveAs" width="66.53" height="67.11" transform="translate(523.39 226.79) scale(0.87)" xlink:href="#SaveAs"/><use width="78.39" height="59.09" transform="translate(611.17 219.31)" xlink:href="#Video"/><use width="78.32" height="61.05" transform="translate(620.2 23.32) scale(0.9)" xlink:href="#SkipForward"/><use width="71.14" height="61.05" transform="translate(719.88 22.69) scale(0.88)" xlink:href="#SkipBackward"/><use width="76.82" height="62.55" transform="translate(914.9 217.58)" xlink:href="#Sequence"/><use width="54.81" height="54.81" transform="translate(22.2 322.59)" xlink:href="#Close"/></g><g id="Layer_2" data-name="Layer 2"><use id="Build-3" data-name="Build" width="69.32" height="72.11" transform="translate(116.34 313.95)" xlink:href="#Build"/><use width="63.89" height="65.37" transform="translate(218.88 317.91)" xlink:href="#Pivot"/><use width="67.38" height="74.55" transform="translate(317.51 312.66)" xlink:href="#Axis"/><use width="67.91" height="70.99" transform="translate(412.69 315)" xlink:href="#Export"/><g id="Linie_1-3" data-name="Linie 1"><path d="M381.75,612.57H319.57a3,3,0,0,1,0-6h62.18a3,3,0,0,1,0,6Z" transform="translate(0.37)" style="fill:#fff"/></g><g id="Linie_2-3" data-name="Linie 2"><path d="M350.66,645.07a3,3,0,0,1-3-3V578.49a3,3,0,0,1,6,0v63.58A3,3,0,0,1,350.66,645.07Z" transform="translate(0.37)" style="fill:#fff"/></g><g id="Ellipse_1-3" data-name="Ellipse 1"><circle cx="222" cy="509.17" r="7.17" style="fill:#eee"/></g><g id="Ellipse_2-2-2" data-name="Ellipse 2"><circle cx="250.66" cy="509.17" r="7.17" style="fill:#eee"/></g><g id="Ellipse_3-2" data-name="Ellipse 3"><circle cx="279.33" cy="509.17" r="7.17" style="fill:#eee"/></g><g id="Rechteck_1-2" data-name="Rechteck 1"><path d="M381.34,543.3h-60a11,11,0,0,1-11-11V498.56a11,11,0,0,1,11-11h60a11,11,0,0,1,11,11v33.73A11,11,0,0,1,381.34,543.3Zm-60-49.75a5,5,0,0,0-5,5v33.73a5,5,0,0,0,5,5h60a5,5,0,0,0,5-5V498.56a5,5,0,0,0-5-5Z" transform="translate(0.37)" style="fill:#fff"/></g><g id="Pfad_2-3" data-name="Pfad 2"><path d="M313.5,537.41a3,3,0,0,1-3-2.8l-3.71-55a3,3,0,0,1,3-3.2h54.67a3,3,0,0,1,2.29,1.06L374,486.1a3,3,0,1,1-4.58,3.87l-6.37-7.54H313l3.49,51.78a3,3,0,0,1-2.79,3.19Z" transform="translate(0.37)" style="fill:#fff"/></g><path d="M365.23,525.09h-26.9a3,3,0,0,1,0-6h26.9a3,3,0,0,1,0,6Z" transform="translate(0.37)" style="fill:#fff"/><g id="Linie_3-2" data-name="Linie 3"><path d="M480,512H420.09a3,3,0,1,1,0-6H480a3,3,0,0,1,0,6Z" transform="translate(0.37)" style="fill:#fff"/></g><g id="Linie_6-2" data-name="Linie 6"><path d="M450.06,542a3,3,0,0,1-3-3V478.7a3,3,0,0,1,6,0V539A3,3,0,0,1,450.06,542Z" transform="translate(0.37)" style="fill:#fff"/></g><path d="M478.55,544.17H422.23a7.09,7.09,0,0,1-7.08-7.08V480.77a7.09,7.09,0,0,1,7.08-7.08h56.32a7.09,7.09,0,0,1,7.08,7.08v56.32A7.08,7.08,0,0,1,478.55,544.17Zm-56.32-64.48a1.08,1.08,0,0,0-1.08,1.08v56.32a1.08,1.08,0,0,0,1.08,1.08h56.32a1.08,1.08,0,0,0,1.08-1.08V480.77a1.08,1.08,0,0,0-1.08-1.08Z" transform="translate(0.37)" style="fill:#fff"/><path d="M771.25,745.24H728.47a16,16,0,0,1-16-16V686.46a16,16,0,0,1,16-16h42.78a16,16,0,0,1,16,16v42.78A16,16,0,0,1,771.25,745.24Zm-42.78-66.78a8,8,0,0,0-8,8v42.78a8,8,0,0,0,8,8h42.78a8,8,0,0,0,8-8V686.46a8,8,0,0,0-8-8Z" transform="translate(0.37)" style="fill:#eee"/><path d="M764.53,717.12a11.17,11.17,0,0,1-1.12,5.11,10.46,10.46,0,0,1-3.19,3.76,14.91,14.91,0,0,1-5,2.33,24.46,24.46,0,0,1-6.52.8H738.2V689h11.48q13.41,0,13.41,9.76a9.91,9.91,0,0,1-1.55,5.59,9.17,9.17,0,0,1-5,3.46,11.75,11.75,0,0,1,3.09,1,9.23,9.23,0,0,1,2.56,1.9,8.72,8.72,0,0,1,1.75,2.76A9.53,9.53,0,0,1,764.53,717.12Zm-7.12-17.61a7.09,7.09,0,0,0-.37-2.32,4.12,4.12,0,0,0-1.28-1.87,6.75,6.75,0,0,0-2.49-1.24,14.16,14.16,0,0,0-4-.46h-5.64v12.55h5.46a13.59,13.59,0,0,0,3.39-.4,7.51,7.51,0,0,0,2.61-1.23,5.68,5.68,0,0,0,1.69-2.07A6.92,6.92,0,0,0,757.41,699.51Zm1.32,17.8a5.86,5.86,0,0,0-.64-2.77,5.94,5.94,0,0,0-1.87-2.07,9.61,9.61,0,0,0-3-1.3,15.57,15.57,0,0,0-4-.46h-5.58v13.81h5.76q4.71,0,7-1.75C758,721.6,758.73,719.78,758.73,717.31Z" transform="translate(0.37)" style="fill:#fff"/><g id="Pfad_5-2" data-name="Pfad 5"><path d="M516.5,513a3.19,3.19,0,0,1-1-.15,3,3,0,0,1-1.89-3.8l.51-1.54c3.62-10.92,7-21.22,16.51-27.57a35.74,35.74,0,0,1,49.59,9.78,3,3,0,0,1-5,3.35A29.77,29.77,0,0,0,534,484.88c-7.77,5.21-10.73,14.14-14.16,24.47l-.51,1.56A3,3,0,0,1,516.5,513Z" transform="translate(0.37)" style="fill:#fff"/></g><g id="Pfad_6-2" data-name="Pfad 6"><path d="M516,514.49a3,3,0,0,1-2.83-2l-4.51-12.89a3,3,0,1,1,5.66-2l3.17,9.06,8.12-6a3,3,0,0,1,3.55,4.84l-11.39,8.36A3,3,0,0,1,516,514.49Z" transform="translate(0.37)" style="fill:#fff"/></g><g id="Pfad_7-2" data-name="Pfad 7"><path d="M549.83,545.23A35.72,35.72,0,0,1,520,529.32a3,3,0,1,1,5-3.32,29.77,29.77,0,0,0,41.22,8.26c9.54-6.35,13-20.25,14.21-28a3,3,0,1,1,5.92.93c-1.36,8.69-5.36,24.41-16.8,32A35.48,35.48,0,0,1,549.83,545.23Z" transform="translate(0.37)" style="fill:#fff"/></g><g id="Pfad_8-2" data-name="Pfad 8"><path d="M589.17,522.09a3,3,0,0,1-2.79-1.9l-3.57-9-7.89,6.44a3,3,0,1,1-3.79-4.64l11.07-9.05a3,3,0,0,1,4.69,1.22L592,518a3,3,0,0,1-1.69,3.89A2.86,2.86,0,0,1,589.17,522.09Z" transform="translate(0.37)" style="fill:#fff"/></g><g id="Rechteck_4-2" data-name="Rechteck 4"><rect x="809.71" y="721.69" width="50.76" height="10.78" rx="4.17" ry="4.17" transform="translate(-269.16 803.46) rotate(-45)" style="fill:#fff"/><path d="M821,748.61a5.67,5.67,0,0,1-4-1.66l-1.72-1.72a5.69,5.69,0,0,1,0-8l30-30a5.68,5.68,0,0,1,8,0l1.72,1.72a5.69,5.69,0,0,1,0,8l-30,30A5.67,5.67,0,0,1,821,748.61Zm28.27-40.06a2.66,2.66,0,0,0-1.89.78l-30,30a2.69,2.69,0,0,0,0,3.79l1.72,1.72a2.68,2.68,0,0,0,3.78,0l30-30a2.69,2.69,0,0,0,0-3.79l-1.72-1.72A2.67,2.67,0,0,0,849.23,708.55Zm-32.94,29.71h0Z" transform="translate(0.37)" style="fill:#fff"/></g><path d="M864.08,718.52a20.48,20.48,0,0,1,0-41h0a3,3,0,1,1,0,6,14.48,14.48,0,1,0,0,29h0A14.53,14.53,0,0,0,878.59,698a3,3,0,0,1,3-3h0a3,3,0,0,1,3,3,20.52,20.52,0,0,1-20.49,20.49Z" transform="translate(0.37)" style="fill:#fff"/><g id="Rechteck_11-2" data-name="Rechteck 11"><path d="M828.54,480.5h10.34a2.82,2.82,0,0,1,2.58,3v51a2.82,2.82,0,0,1-2.58,3H828.54a2.82,2.82,0,0,1-2.58-3v-51A2.82,2.82,0,0,1,828.54,480.5Z" transform="translate(0.37)" style="fill:#fff"/><path d="M838.88,540.5H828.54a5.81,5.81,0,0,1-5.58-6v-51a5.81,5.81,0,0,1,5.58-6h10.34a5.8,5.8,0,0,1,5.58,6v51A5.8,5.8,0,0,1,838.88,540.5Zm-9.92-6h9.5v-51H829Z" transform="translate(0.37)" style="fill:#fff"/></g><g id="Rechteck_12-2" data-name="Rechteck 12"><path d="M860.21,480.5h11a2.88,2.88,0,0,1,2.75,3v51a2.88,2.88,0,0,1-2.75,3h-11a2.88,2.88,0,0,1-2.75-3v-51A2.88,2.88,0,0,1,860.21,480.5Z" transform="translate(0.37)" style="fill:#fff"/><path d="M871.21,540.5h-11a5.89,5.89,0,0,1-5.75-6v-51a5.89,5.89,0,0,1,5.75-6h11a5.89,5.89,0,0,1,5.75,6v51A5.89,5.89,0,0,1,871.21,540.5Zm-10.75-6H871v-51h-10.5Z" transform="translate(0.37)" style="fill:#fff"/></g><g id="Play-9" data-name="Play"><path d="M967.46,509,932.3,535.07V482Z" transform="translate(0.37)" style="fill:#fff"/><path d="M932.3,538.07a3.08,3.08,0,0,1-1.35-.32,3,3,0,0,1-1.65-2.68V482a3,3,0,0,1,4.83-2.38l35.16,27a3,3,0,0,1,0,4.79l-35.16,26.06A3,3,0,0,1,932.3,538.07Zm3-50v41L962.48,509Z" transform="translate(0.37)" style="fill:#fff"/></g><g id="Ellipse_4-2" data-name="Ellipse 4"><path d="M134.57,608.83a10.56,10.56,0,1,1,10.56-10.56A10.57,10.57,0,0,1,134.57,608.83Zm0-15.11a4.56,4.56,0,1,0,4.56,4.55A4.55,4.55,0,0,0,134.57,593.72Z" transform="translate(0.37)" style="fill:#fff"/></g><g id="Linie_11-2" data-name="Linie 11"><path d="M125.27,601.27h-8.71a3,3,0,1,1,0-6h8.71a3,3,0,1,1,0,6Z" transform="translate(0.37)" style="fill:#fff"/></g><g id="Linie_12-2" data-name="Linie 12"><path d="M184,601.27h-40.1a3,3,0,0,1,0-6H184a3,3,0,1,1,0,6Z" transform="translate(0.37)" style="fill:#fff"/></g><g id="Ellipse_6-2" data-name="Ellipse 6"><path d="M165.37,637.88a10.56,10.56,0,1,1,10.55-10.55A10.56,10.56,0,0,1,165.37,637.88Zm0-15.11a4.56,4.56,0,1,0,4.55,4.56A4.56,4.56,0,0,0,165.37,622.77Z" transform="translate(0.37)" style="fill:#fff"/></g><g id="Linie_15-2" data-name="Linie 15"><path d="M184,630.33h-9.3a3,3,0,1,1,0-6H184a3,3,0,1,1,0,6Z" transform="translate(0.37)" style="fill:#fff"/></g><g id="Linie_16-2" data-name="Linie 16"><path d="M156.07,630.33H116.56a3,3,0,0,1,0-6h39.51a3,3,0,1,1,0,6Z" transform="translate(0.37)" style="fill:#fff"/></g><g id="Pfad_13-3" data-name="Pfad 13"><path d="M230.51,643.28a12,12,0,0,1-12-11.93V587.82a12,12,0,0,1,11.92-12.1h41.12a3,3,0,0,1,2.12.88l9.1,9.1a3,3,0,0,1,.88,2.12v43.8a12.42,12.42,0,0,1-12.36,11.66H230.51Zm0-61.56a6,6,0,0,0-6,6.08v43.53a6,6,0,0,0,6,5.95h40.75a6.4,6.4,0,0,0,6.37-5.93V589.07l-7.34-7.35Z" transform="translate(0.37)" style="fill:#fff"/></g><g id="Pfad_12-2" data-name="Pfad 12"><path d="M269.33,642.21a3,3,0,0,1-3-3V618.45c0-4.34-1.94-6.37-6.1-6.37h-18.3c-4.17,0-6.1,2-6.1,6.37v20.76a3,3,0,0,1-6,0V618.45c0-7.63,4.63-12.37,12.1-12.37h18.3c7.47,0,12.1,4.74,12.1,12.37v20.76A3,3,0,0,1,269.33,642.21Z" transform="translate(0.37)" style="fill:#fff"/></g><g id="Pfad_14-2" data-name="Pfad 14"><path d="M244,593.79a7.43,7.43,0,0,1-7.39-8.3v-5.43a3,3,0,0,1,6,0v5.62a2.28,2.28,0,0,1,0,.45,1.37,1.37,0,0,0,0,.35,1.44,1.44,0,0,0,1.57,1.3h13.94a1.69,1.69,0,0,0,1.55-1.83c0-.08,0-.17,0-.25v-5.62a3,3,0,0,1,6,0v5.51a7.71,7.71,0,0,1-7.05,8.17,8.14,8.14,0,0,1-.85,0H244.53Z" transform="translate(0.37)" style="fill:#fff"/></g><g id="Pfad_15-2" data-name="Pfad 15"><path d="M83.29,612.52a3,3,0,0,1-3-3l-.21-21.79L58.35,588h0a3,3,0,0,1,0-6l23.58-.23a4.19,4.19,0,0,1,4.19,4.08l.23,23.67a3,3,0,0,1-3,3Z" transform="translate(0.37)" style="fill:#eee"/></g><g id="Pfad_16-2" data-name="Pfad 16"><path d="M16.2,637.84a4.17,4.17,0,0,1-4.13-4.08l-.23-23.9a3,3,0,1,1,6-.06l.21,22,22-.21h0a3,3,0,0,1,0,6l-23.88.23Zm0-6h0Z" transform="translate(0.37)" style="fill:#eee"/></g><g id="Ellipse_1-2-3" data-name="Ellipse 1-2"><path d="M150.46,545.94h-.06a36.94,36.94,0,0,1,.06-73.88h.06a36.94,36.94,0,0,1-.06,73.88Zm0-67.88a30.94,30.94,0,0,0-.05,61.88h.05a30.94,30.94,0,0,0,0-61.88Z" transform="translate(0.37)" style="fill:#fff"/></g><ellipse cx="168.98" cy="492.67" rx="6.92" ry="15.48" transform="translate(-280.9 230.84) rotate(-40.89)" style="fill:#fff"/><path d="M176.53,508.23a12.71,12.71,0,0,1-5.36-1.36,30.57,30.57,0,0,1-9.69-7.7c-6-6.94-9.52-16.2-4.6-20.46s13.59.53,19.6,7.47,9.52,16.2,4.59,20.46A6.72,6.72,0,0,1,176.53,508.23Zm-15.11-25.14a.94.94,0,0,0-.61.15c-.76.66-.16,5.81,5.2,12a25,25,0,0,0,7.7,6.2c2.25,1.05,3.3.79,3.44.67.76-.66.16-5.81-5.2-12C167.39,484.84,163.08,483.09,161.42,483.09Z" transform="translate(0.37)" style="fill:#fff"/><g id="Ellipse_8-2" data-name="Ellipse 8"><path d="M749.86,646.26a36.86,36.86,0,1,1,36.86-36.86A36.91,36.91,0,0,1,749.86,646.26Zm0-67.72a30.86,30.86,0,1,0,30.86,30.86A30.9,30.9,0,0,0,749.86,578.54Z" transform="translate(0.37)" style="fill:#fff"/></g><g id="Ellipse_9-2" data-name="Ellipse 9"><ellipse cx="759.73" cy="599.09" rx="7.93" ry="14.27" transform="translate(-200.74 712.68) rotate(-45)" style="fill:#fff"/></g><path d="M674.79,639H627.72a11.07,11.07,0,0,1-11.06-11.06V597.8a11.07,11.07,0,0,1,11.06-11.06h47.07a11.07,11.07,0,0,1,11.06,11.06v30.1A11.07,11.07,0,0,1,674.79,639Zm-47.07-46.22a5.07,5.07,0,0,0-5.06,5.06v30.1a5.07,5.07,0,0,0,5.06,5.06h47.07a5.07,5.07,0,0,0,5.06-5.06V597.8a5.07,5.07,0,0,0-5.06-5.06Z" transform="translate(0.37)" style="fill:#fff"/><path d="M651.26,628.92a16.07,16.07,0,1,1,16.07-16.07A16.09,16.09,0,0,1,651.26,628.92Zm0-26.14a10.07,10.07,0,1,0,10.07,10.07A10.08,10.08,0,0,0,651.26,602.78Z" transform="translate(0.37)" style="fill:#fff"/><path d="M664.87,590h-6v-3a5.68,5.68,0,0,0-.83-3H644.41a5.67,5.67,0,0,0-.84,3v3h-6v-3c0-4.38,2.31-9,6.58-9h14.14c4.28,0,6.58,4.66,6.58,9Z" transform="translate(0.37)" style="fill:#fff"/><g id="Pfad_17-2" data-name="Pfad 17"><path d="M479.2,638.91H420.72a9.34,9.34,0,0,1-9.33-9.33V590a9.34,9.34,0,0,1,9.33-9.33H450a3,3,0,0,1,0,6H420.72a3.33,3.33,0,0,0-3.33,3.33v39.57a3.33,3.33,0,0,0,3.33,3.33H479.2a3.34,3.34,0,0,0,3.34-3.33V614.67a3,3,0,0,1,6,0v14.91A9.35,9.35,0,0,1,479.2,638.91Z" transform="translate(0.37)" style="fill:#fff"/></g><g id="Pfad_18-5" data-name="Pfad 18"><path d="M450,619a3,3,0,0,1-1.93-.71,3,3,0,0,1-.36-4.23c.66-.78,16.48-19.41,34.89-31.85a3,3,0,1,1,3.36,5c-17.7,12-33.51,30.57-33.67,30.75A3,3,0,0,1,450,619Z" transform="translate(0.37)" style="fill:#fff"/></g><g id="Pfad_19-5" data-name="Pfad 19"><path d="M485.54,602.26a3,3,0,0,1-3-3l-.13-12.59-12.59.12h0a3,3,0,0,1,0-6l14.87-.14a3.71,3.71,0,0,1,2.63,1.05,3.65,3.65,0,0,1,1.13,2.62l.15,14.88a3,3,0,0,1-3,3Zm-.84-15.58h0Z" transform="translate(0.37)" style="fill:#fff"/></g><g id="Linie_26-2" data-name="Linie 26"><path d="M528.14,637.16A3,3,0,0,1,526,632l48.48-48.48a3,3,0,0,1,4.24,4.24l-48.48,48.48A3,3,0,0,1,528.14,637.16Z" transform="translate(0.37)" style="fill:#fff"/></g><path d="M571.63,640.17H533.25a11,11,0,0,1-11-11V590.79a11,11,0,0,1,11-11h38.38a11,11,0,0,1,11,11v38.38A11,11,0,0,1,571.63,640.17Zm-38.38-54.38a5,5,0,0,0-5,5v38.38a5,5,0,0,0,5,5h38.38a5,5,0,0,0,5-5V590.79a5,5,0,0,0-5-5Z" transform="translate(0.37)" style="fill:#fff"/><path d="M49.46,548a3,3,0,0,1-3-3V502a3,3,0,0,1,1.83-2.76l34-14.47a3,3,0,0,1,4.17,2.76v42.86a3,3,0,0,1-1.82,2.76l-34,14.54A2.88,2.88,0,0,1,49.46,548Zm3-44v36.4l28-12V492.11Z" transform="translate(0.37)" style="fill:#fff"/><path d="M49.46,505a3,3,0,0,1-1.17-.24l-34-14.47a3,3,0,0,1-1.83-2.75,3,3,0,0,1,1.82-2.77l34-14.54a2.94,2.94,0,0,1,2.36,0l34,14.54a3,3,0,0,1,0,5.52l-34,14.47A3,3,0,0,1,49.46,505ZM23.1,487.56l26.36,11.22,26.36-11.22L49.46,476.29Z" transform="translate(0.37)" style="fill:#fff"/><path d="M49.46,548a2.88,2.88,0,0,1-1.18-.25l-34-14.54a3,3,0,0,1-1.82-2.76V487.57a3,3,0,0,1,4.18-2.76l34,14.47A3,3,0,0,1,52.46,502V545a3,3,0,0,1-1.35,2.5A3,3,0,0,1,49.46,548Zm-31-19.53,28,12V504l-28-11.92Z" transform="translate(0.37)" style="fill:#fff"/><path d="M49.46,548a3,3,0,0,1-1.17-.24l-34-14.47a3,3,0,0,1,0-5.52l34-14.55a3,3,0,0,1,2.36,0l34,14.55a3,3,0,0,1,0,5.52l-34,14.47A3,3,0,0,1,49.46,548ZM23.1,530.5l26.36,11.22L75.82,530.5,49.46,519.22Z" transform="translate(0.37)" style="fill:#fff"/><path d="M49.46,519a3,3,0,0,1-3-3V473a3,3,0,0,1,6,0V516A3,3,0,0,1,49.46,519Z" transform="translate(0.37)" style="fill:#fff"/><g id="Rechteck_10-2" data-name="Rechteck 10"><path d="M866.22,646.62H833.48a11,11,0,0,1-11.09-10.93V609.51a11,11,0,0,1,11.09-10.93h32.74a11,11,0,0,1,11.09,10.93v26.18A11,11,0,0,1,866.22,646.62Zm-32.74-42a5,5,0,0,0-5.09,4.93v26.18a5,5,0,0,0,5.09,4.93h32.74a5,5,0,0,0,5.09-4.93V609.51a5,5,0,0,0-5.09-4.93Z" transform="translate(0.37)" style="fill:#fff"/></g><g id="Pfad_3-2" data-name="Pfad 3"><path d="M868.58,603.73h-6V584.87c0-2.43,0-7.49-12.35-7.49-5.69,0-12.48,1.3-12.48,7.49v18.86h-6V584.87c0-8.45,6.91-13.49,18.48-13.49,15.17,0,18.35,7.34,18.35,13.49Z" transform="translate(0.37)" style="fill:#fff"/></g><path d="M950.33,647.42a38.26,38.26,0,1,1,37.86-38.26A38.1,38.1,0,0,1,950.33,647.42Zm0-72.52a34.26,34.26,0,1,0,33.86,34.26A34.1,34.1,0,0,0,950.33,574.9Z" transform="translate(0.37)" style="fill:#fff"/><path d="M967.39,622.25a2,2,0,0,1-.75-3.85c4.85-2,7.74-4.7,7.74-7.29,0-5.16-10.91-11.15-25-11.15-1.26,0-2.52,0-3.73.12a2,2,0,1,1-.27-4c1.3-.09,2.65-.13,4-.13,15.7,0,29,6.94,29,15.15,0,4.4-3.64,8.31-10.24,11A2,2,0,0,1,967.39,622.25Z" transform="translate(0.37)" style="fill:#fff"/><path d="M949.68,639.11c-2.63,0-5.15-1.39-7.28-4a2,2,0,0,1,3.11-2.52c.93,1.16,2.42,2.54,4.17,2.54,3.21,0,6.49-4.6,8.38-11.7.23-.88.42-1.71.58-2.51s.37-1.94.49-2.84a56.77,56.77,0,0,0,.54-7.92c0-14.81-5.27-25.87-10-25.87-2.73,0-7,4.52-9,11.82a2,2,0,0,1-3.85-1.09c2.47-8.67,7.77-14.73,12.9-14.73,8.76,0,14,15.18,14,29.86a60.22,60.22,0,0,1-.58,8.48c-.13,1-.32,2.08-.53,3.09s-.39,1.77-.64,2.73C959.49,633.62,954.92,639.11,949.68,639.11Z" transform="translate(0.37)" style="fill:#fff"/><path d="M949.84,625.26c-16.25,0-29-6.26-29-14.26,0-3,1.54-8.57,11.85-11.9a2,2,0,1,1,1.23,3.81c-5.77,1.86-9.08,4.81-9.08,8.09,0,4.85,10.25,10.26,25,10.26,1,0,2,0,2.83-.07a2,2,0,0,1,2.1,1.9,2,2,0,0,1-1.89,2.1C952,625.24,951,625.26,949.84,625.26Z" transform="translate(0.37)" style="fill:#fff"/><ellipse cx="949.78" cy="611" rx="7.97" ry="3.27" style="fill:#fff"/><circle cx="50.18" cy="714.04" r="29.53" style="fill:none"/><path d="M49.81,743h-.09a28.91,28.91,0,0,1,.09-57.82h.09A28.91,28.91,0,0,1,49.81,743Zm0-51.82A22.91,22.91,0,0,0,49.74,737h.07a22.91,22.91,0,0,0,.07-45.82h-.07Z" transform="translate(0.37)" style="fill:#fff"/><g id="Pfad_2-4" data-name="Pfad 2"><path d="M49.63,717.54a3,3,0,0,1-1.91-5.31L67.48,696a3,3,0,1,1,3.81,4.63L51.54,716.86A3,3,0,0,1,49.63,717.54Z" transform="translate(0.37)" style="fill:#fff"/></g><g id="Rechteck_7-2" data-name="Rechteck 7"><rect x="44.37" y="678.97" width="11.08" height="7.38" transform="translate(-632.53 730.51) rotate(-89.83)" style="fill:#fff"/></g><path d="M61.41,681.34h0l-22-.07a3,3,0,0,1,0-6h0l22,.07a3,3,0,0,1,0,6Z" transform="translate(0.37)" style="fill:#fff"/><g id="Rechteck_9-2" data-name="Rechteck 9"><rect x="24.03" y="688.14" width="11.08" height="7.38" transform="translate(-470.71 213.44) rotate(-43.85)" style="fill:#fff"/></g><path d="M176.9,741.44H124a6,6,0,0,1-6-6V682.56a6,6,0,0,1,6-6H176.9a6,6,0,0,1,6,6v52.88A6,6,0,0,1,176.9,741.44ZM124,680.56a2,2,0,0,0-2,2v52.88a2,2,0,0,0,2,2H176.9a2,2,0,0,0,2-2V682.56a2,2,0,0,0-2-2Z" transform="translate(0.37)" style="fill:#fff"/><path d="M179.34,739.88a2,2,0,0,1-1.41-.59l-57.76-57.75a2,2,0,0,1,2.83-2.83l57.75,57.75a2,2,0,0,1-1.41,3.42Z" transform="translate(0.37)" style="fill:#fff"/><path d="M121.58,739.88a2,2,0,0,1-1.41-3.42l57.76-57.75a2,2,0,0,1,2.82,2.83L123,739.29A2,2,0,0,1,121.58,739.88Z" transform="translate(0.37)" style="fill:#fff"/><path d="M260.54,745.59h-18.6a9.24,9.24,0,0,1-9.23-9.23v-.29l3.16-16.51c1.12-6.38,7.32-8.67,12.28-8.67h6.18c4.65,0,10.3,2.2,12.2,8.35l.08.32,3.16,16.51v.29A9.24,9.24,0,0,1,260.54,745.59Zm-21.82-9a3.23,3.23,0,0,0,3.22,3h18.6a3.24,3.24,0,0,0,3.22-3l-3-15.74c-1.2-3.57-4.88-4-6.42-4h-6.18c-.59,0-5.74.11-6.38,3.75Z" transform="translate(0.37)" style="fill:#fff"/><path d="M251.24,704.54A14.72,14.72,0,1,1,266,689.83,14.73,14.73,0,0,1,251.24,704.54Zm0-23.43a8.72,8.72,0,1,0,8.71,8.72A8.73,8.73,0,0,0,251.24,681.11Z" transform="translate(0.37)" style="fill:#fff"/><path d="M367.91,743.58h-37a10.68,10.68,0,0,1-10.8-10.52V684.23a10.68,10.68,0,0,1,10.8-10.51h31.3l16.49,14.56v44.78A10.68,10.68,0,0,1,367.91,743.58Zm-37-63.86a4.68,4.68,0,0,0-4.8,4.51v48.83a4.68,4.68,0,0,0,4.8,4.52h37a4.68,4.68,0,0,0,4.8-4.52V691L360,679.72Z" transform="translate(0.37)" style="fill:#fff"/><path d="M349.85,701.82H335.8a3.5,3.5,0,0,1,0-7h14.05a3.5,3.5,0,0,1,0,7Z" transform="translate(0.37)" style="fill:#fff"/><path d="M355.05,714H335.8a3.5,3.5,0,1,1,0-7h19.25a3.5,3.5,0,0,1,0,7Z" transform="translate(0.37)" style="fill:#fff"/><path d="M346.73,726.23H335.8a3.5,3.5,0,1,1,0-7h10.93a3.5,3.5,0,0,1,0,7Z" transform="translate(0.37)" style="fill:#fff"/><g id="Pfad_18-6" data-name="Pfad 18"><path d="M475.65,736.79a3,3,0,0,1-2.22-1,140.8,140.8,0,0,0-28.17-22.55,3,3,0,1,1,3.11-5.13,144.19,144.19,0,0,1,29.51,23.65,3,3,0,0,1-2.23,5Z" transform="translate(0.37)" style="fill:#fff"/></g><g id="Pfad_19-6" data-name="Pfad 19"><path d="M447,725.94a3,3,0,0,1-2.9-2.26l-3.43-13.46a3.68,3.68,0,0,1,2.66-4.47l13.46-3.43a3,3,0,0,1,1.48,5.82L447,711l2.85,11.21a3,3,0,0,1-2.17,3.64A2.69,2.69,0,0,1,447,725.94Zm-2.18-14.38h0Z" transform="translate(0.37)" style="fill:#fff"/></g><path d="M464.08,744.18H428.23a10.44,10.44,0,0,1-10.57-10.28v-51a10.44,10.44,0,0,1,10.57-10.28h30.36l16.05,14.16v22.91a3,3,0,0,1-6,0v-20.2l-12.32-10.87H428.23a4.44,4.44,0,0,0-4.57,4.28v51a4.44,4.44,0,0,0,4.57,4.28h35.85a3,3,0,1,1,0,6Z" transform="translate(0.37)" style="fill:#fff"/><g id="Pfad_13-4" data-name="Pfad 13"><path d="M533.46,744.53a11,11,0,0,1-11-10.94V714a3,3,0,0,1,6,0v19.45l-3,.14,3,0a5,5,0,0,0,5,5h36.27a5.36,5.36,0,0,0,5.34-5V714a3,3,0,0,1,6,0v19.69a1.09,1.09,0,0,1,0,.18,11.36,11.36,0,0,1-11.33,10.68h-36.3Z" transform="translate(0.37)" style="fill:#fff"/></g><g id="Pfad_18-7" data-name="Pfad 18"><path d="M551.61,721.06h-.19a3,3,0,0,1-2.81-3.17c1.23-19.92,5.47-30.22,5.65-30.65a3,3,0,0,1,5.53,2.32c0,.09-4,9.91-5.19,28.7A3,3,0,0,1,551.61,721.06Z" transform="translate(0.37)" style="fill:#fff"/></g><g id="Pfad_19-7" data-name="Pfad 19"><path d="M551.54,725.3a3.62,3.62,0,0,1-2.65-1.15l-9.12-9.62a3,3,0,1,1,4.35-4.13l7.51,7.92,7.92-7.5a3,3,0,0,1,4.13,4.35l-9.63,9.13A3.64,3.64,0,0,1,551.54,725.3Zm1.7-5.28h0Z" transform="translate(0.37)" style="fill:#fff"/></g><path d="M618.89,683.31l61.94.09a3.19,3.19,0,0,1,3.19,3.19L684,729.21a3.19,3.19,0,0,1-3.2,3.19l-61.94-.09a3.19,3.19,0,0,1-3.18-3.2l.06-42.61a3.19,3.19,0,0,1,3.19-3.19h0m0-5a8.19,8.19,0,0,0-8.19,8.18l-.06,42.62a8.19,8.19,0,0,0,8.18,8.2l61.94.09h0a8.19,8.19,0,0,0,8.19-8.18L689,686.6a8.18,8.18,0,0,0-8.18-8.2l-61.94-.09Z" transform="translate(0.37)" style="fill:#fff"/><rect x="647.26" y="651.84" width="5.19" height="77.32" rx="2.51" ry="2.51" transform="translate(-41.2 1339.37) rotate(-89.92)" style="fill:#fff"/><rect x="647.2" y="686.55" width="5.19" height="77.32" rx="2.51" ry="2.51" transform="translate(-75.98 1373.97) rotate(-89.92)" style="fill:#fff"/><g id="Play-10" data-name="Play"><path d="M654.82,510.15l-31.57,23.39V485.91Z" transform="translate(0.37)" style="fill:#fff"/><path d="M623.25,536.54a2.94,2.94,0,0,1-1.35-.32,3,3,0,0,1-1.65-2.68V485.91a3,3,0,0,1,4.83-2.38l31.57,24.24a3,3,0,0,1,0,4.79L625,536A3,3,0,0,1,623.25,536.54Zm3-44.54v35.58l23.59-17.47Z" transform="translate(0.37)" style="fill:#fff"/></g><g id="Play-11" data-name="Play"><path d="M686.39,510.15l-31.57,23.39V485.91Z" transform="translate(0.37)" style="fill:#fff"/><path d="M654.82,536.54a2.94,2.94,0,0,1-1.35-.32,3,3,0,0,1-1.65-2.68V485.91a3,3,0,0,1,4.83-2.38l31.56,24.24a3,3,0,0,1,0,4.79L656.6,536A3,3,0,0,1,654.82,536.54Zm3-44.54v35.58l23.59-17.47Z" transform="translate(0.37)" style="fill:#fff"/></g><path d="M686.39,536.54a3,3,0,0,1-3-3V485.91a3,3,0,1,1,6,0v47.63A3,3,0,0,1,686.39,536.54Z" transform="translate(0.37)" style="fill:#fff"/><path id="Play-12" data-name="Play" d="M750.63,509l27.78,22.92V485.21Z" transform="translate(0.37)" style="fill:#fff;stroke:#fff;stroke-linecap:round;stroke-linejoin:round;stroke-width:8px"/><path id="Play-13" data-name="Play" d="M722.86,509l27.77,22.92V485.21Z" transform="translate(0.37)" style="fill:#fff;stroke:#fff;stroke-linecap:round;stroke-linejoin:round;stroke-width:8px"/><line x1="723.22" y1="485.21" x2="723.22" y2="531.88" style="fill:none;stroke:#fff;stroke-linecap:round;stroke-linejoin:round;stroke-width:8px"/><path d="M944.86,738.55h-21.4a9.11,9.11,0,0,1-9.1-9.1V685.67a9.11,9.11,0,0,1,9.1-9.09h21.4a9.11,9.11,0,0,1,9.1,9.09v43.78A9.11,9.11,0,0,1,944.86,738.55Zm-21.4-56a3.1,3.1,0,0,0-3.1,3.09v43.78a3.1,3.1,0,0,0,3.1,3.1h21.4a3.1,3.1,0,0,0,3.1-3.1V685.67a3.1,3.1,0,0,0-3.1-3.09Z" transform="translate(0.37)" style="fill:#fff"/><path d="M991.19,739.13H969.71a9.08,9.08,0,0,1-9.06-9.06V686.22a9.08,9.08,0,0,1,9.06-9.06h21.48v6H969.71a3.06,3.06,0,0,0-3.06,3.06v43.85a3.07,3.07,0,0,0,3.06,3.06h21.48Z" transform="translate(0.37)" style="fill:#fff"/><path d="M991.19,699.33H963.65V686.22a6.06,6.06,0,0,1,6.06-6.06h21.48" transform="translate(0.37)" style="fill:#fff"/><path d="M991.19,702.33H960.65V686.22a9.08,9.08,0,0,1,9.06-9.06h21.48v6H969.71a3.06,3.06,0,0,0-3.06,3.06v10.11h24.54Z" transform="translate(0.37)" style="fill:#fff"/><path d="M923.83,679.58h21.41a6.09,6.09,0,0,1,6.09,6.09v13.65a0,0,0,0,1,0,0h-33.6a0,0,0,0,1,0,0V685.68A6.09,6.09,0,0,1,923.83,679.58Z" style="fill:#fff"/><path d="M954,702.33h-39.6V685.67a9.11,9.11,0,0,1,9.1-9.09h21.4a9.11,9.11,0,0,1,9.1,9.09Zm-33.6-6H948V685.67a3.1,3.1,0,0,0-3.1-3.09h-21.4a3.1,3.1,0,0,0-3.1,3.09Z" transform="translate(0.37)" style="fill:#fff"/><g id="_Group_" data-name="&lt;Group&gt;"><g id="Add-9" data-name="Add"><g id="Gruppe_4-3" data-name="Gruppe 4"><g id="Gruppe_2-3" data-name="Gruppe 2"><line id="Linie_1-4" data-name="Linie 1" x1="27.07" y1="785.59" x2="72.84" y2="831.37" style="fill:none;stroke:#fff;stroke-linecap:round;stroke-miterlimit:10;stroke-width:8px"/></g><g id="Gruppe_3-3" data-name="Gruppe 3"><line id="Linie_2-4" data-name="Linie 2" x1="72.84" y1="785.59" x2="26.03" y2="832.41" style="fill:none;stroke:#fff;stroke-linecap:round;stroke-miterlimit:10;stroke-width:8px"/></g></g></g></g><path d="M172.74,845.05H155.27a6,6,0,0,1-6-6V821.58a6,6,0,0,1,6-6h17.47a6,6,0,0,1,6,6v17.47A6,6,0,0,1,172.74,845.05Zm-17.47-25.47a2,2,0,0,0-2,2v17.47a2,2,0,0,0,2,2h17.47a2,2,0,0,0,2-2V821.58a2,2,0,0,0-2-2Z" transform="translate(0.37)" style="fill:#fff"/><path d="M139.28,845.05H121.8a6,6,0,0,1-6-6V821.58a6,6,0,0,1,6-6h17.48a6,6,0,0,1,6,6v17.47A6,6,0,0,1,139.28,845.05ZM121.8,819.58a2,2,0,0,0-2,2v17.47a2,2,0,0,0,2,2h17.48a2,2,0,0,0,2-2V821.58a2,2,0,0,0-2-2Z" transform="translate(0.37)" style="fill:#fff"/><path d="M139.28,811.59H121.8a6,6,0,0,1-6-6V788.11a6,6,0,0,1,6-6h17.48a6,6,0,0,1,6,6v17.48A6,6,0,0,1,139.28,811.59ZM121.8,786.11a2,2,0,0,0-2,2v17.48a2,2,0,0,0,2,2h17.48a2,2,0,0,0,2-2V788.11a2,2,0,0,0-2-2Z" transform="translate(0.37)" style="fill:#fff"/><path d="M173.49,807.13a6,6,0,0,1-1.94-.33L155,801.17a6,6,0,0,1-3.75-7.61L156.9,777a6,6,0,0,1,7.61-3.74l16.54,5.63a6,6,0,0,1,3.75,7.62l-5.64,16.54a6,6,0,0,1-5.67,4.07Zm-.65-4.11a2,2,0,0,0,2.54-1.25L181,785.23a2,2,0,0,0-.1-1.53,2,2,0,0,0-1.15-1l-16.54-5.64a2,2,0,0,0-2.54,1.25l-5.63,16.55a2,2,0,0,0,1.25,2.53Z" transform="translate(0.37)" style="fill:#fff"/><path d="M270.17,823.41a2,2,0,0,1-.75-3.85c5.52-2.25,8.82-5.38,8.82-8.38,0-5.88-12.32-12.72-28.19-12.72-1.42,0-2.83,0-4.18.14a2,2,0,1,1-.28-4c1.45-.1,2.95-.15,4.46-.15,17.45,0,32.19,7.66,32.19,16.72,0,4.83-4,9.12-11.32,12.08A2,2,0,0,1,270.17,823.41Z" transform="translate(0.37)" style="fill:#fff"/><path d="M250.36,842.28c-2.87,0-5.63-1.53-8-4.41a2,2,0,0,1,3.11-2.52c1.08,1.34,2.8,2.93,4.86,2.93,3.7,0,7.46-5.21,9.6-13.27.26-1,.47-1.92.66-2.83s.4-2.16.55-3.19a64.56,64.56,0,0,0,.6-8.89c0-16.71-6-29.19-11.41-29.19-3.15,0-8,5.12-10.36,13.4a2,2,0,1,1-3.85-1.09c2.73-9.61,8.57-16.31,14.21-16.31,9.65,0,15.41,16.87,15.41,33.18a67.89,67.89,0,0,1-.64,9.45c-.16,1.11-.37,2.33-.59,3.44s-.44,2-.71,3C261.13,836.2,256.1,842.28,250.36,842.28Z" transform="translate(0.37)" style="fill:#fff"/><path d="M250.53,826.78c-18.05,0-32.19-6.91-32.19-15.72,0-5.71,4.66-10.36,13.1-13.09a2,2,0,0,1,1.23,3.81c-6.56,2.12-10.33,5.5-10.33,9.28,0,5.54,11.58,11.72,28.19,11.72,1.18,0,2.22,0,3.18-.07a2,2,0,1,1,.21,4C252.89,826.75,251.78,826.78,250.53,826.78Z" transform="translate(0.37)" style="fill:#fff"/><path d="M382.35,820.74H331.1V773.66a2,2,0,0,1,4,0v43.08h47.25a2,2,0,1,1,0,4Z" transform="translate(0.37)" style="fill:#fff"/><path d="M319,846.21a2,2,0,0,1-1.75-3l14.14-25.47a2,2,0,1,1,3.49,1.94l-14.13,25.47A2,2,0,0,1,319,846.21Z" transform="translate(0.37)" style="fill:#fff"/><path d="M469.1,845H451.62a6,6,0,0,1-6-6V821.51a6,6,0,0,1,6-6H469.1a6,6,0,0,1,6,6V839A6,6,0,0,1,469.1,845Zm-17.48-25.48a2,2,0,0,0-2,2V839a2,2,0,0,0,2,2H469.1a2,2,0,0,0,2-2V821.51a2,2,0,0,0-2-2Z" transform="translate(0.37)" style="fill:#fff"/><path d="M435.63,845H418.16a6,6,0,0,1-6-6V821.51a6,6,0,0,1,6-6h17.47a6,6,0,0,1,6,6V839A6,6,0,0,1,435.63,845Zm-17.47-25.48a2,2,0,0,0-2,2V839a2,2,0,0,0,2,2h17.47a2,2,0,0,0,2-2V821.51a2,2,0,0,0-2-2Z" transform="translate(0.37)" style="fill:#fff"/><path d="M435.63,811.53H418.16a6,6,0,0,1-6-6V788.05a6,6,0,0,1,6-6h17.47a6,6,0,0,1,6,6v17.48A6,6,0,0,1,435.63,811.53Zm-17.47-25.48a2,2,0,0,0-2,2v17.48a2,2,0,0,0,2,2h17.47a2,2,0,0,0,2-2V788.05a2,2,0,0,0-2-2Z" transform="translate(0.37)" style="fill:#fff"/><g id="Pfad_18-8" data-name="Pfad 18"><path d="M450.45,810.85a2.93,2.93,0,0,1-1.43-.37,3,3,0,0,1-1.21-4.06c.26-.47,6.4-11.61,23.32-27a3,3,0,0,1,4,4.44c-16.08,14.63-22,25.33-22.09,25.44A3,3,0,0,1,450.45,810.85Z" transform="translate(0.37)" style="fill:#fff"/></g><g id="Pfad_19-8" data-name="Pfad 19"><path d="M475.82,797.25h-.25a3,3,0,0,1-2.74-3.23l1.06-13-13-1.06a3,3,0,1,1,.49-6l15.21,1.25a3.72,3.72,0,0,1,3.42,4l-1.24,15.23A3,3,0,0,1,475.82,797.25Zm.31-16h0Z" transform="translate(0.37)" style="fill:#fff"/></g><use width="78.6" height="45.56" transform="translate(610.86 787.94)" xlink:href="#Eye_visible"/><use width="78.6" height="45.56" transform="translate(512.85 787.94)" xlink:href="#Eye_hidden"/><path d="M776.25,780.54H723.47a11,11,0,0,0-11,11v38.37a11,11,0,0,0,11,11h52.78a11,11,0,0,0,11-11V791.54A11,11,0,0,0,776.25,780.54Zm5,49.37a5,5,0,0,1-5,5H723.47a5,5,0,0,1-5-5V791.54a5,5,0,0,1,5-5h52.78a5,5,0,0,1,5,5Z" transform="translate(0.37)" style="fill:#fff"/><path d="M583,345.62h-5.14a27.29,27.29,0,0,0-2.19-5.29l3.64-3.63a2.32,2.32,0,0,0,0-3.27l-7.63-7.64a2.33,2.33,0,0,0-3.28,0l-3.63,3.64a26.32,26.32,0,0,0-5.28-2.18V322.1a2.31,2.31,0,0,0-2.32-2.31H546.38a2.31,2.31,0,0,0-2.32,2.31v5.15a26.32,26.32,0,0,0-5.28,2.18l-3.63-3.64a2.33,2.33,0,0,0-3.28,0l-7.63,7.64a2.32,2.32,0,0,0,0,3.27l3.64,3.63a27.29,27.29,0,0,0-2.19,5.29h-5.14a2.31,2.31,0,0,0-2.32,2.31v10.79a2.32,2.32,0,0,0,2.32,2.32h5.14a27,27,0,0,0,2.19,5.28L524.24,370a2.32,2.32,0,0,0,0,3.27l7.63,7.63a2.33,2.33,0,0,0,3.28,0l3.63-3.64a27,27,0,0,0,5.28,2.19v5.14a2.32,2.32,0,0,0,2.32,2.32h10.79a2.32,2.32,0,0,0,2.32-2.32v-5.14a27,27,0,0,0,5.28-2.19l3.63,3.64a2.33,2.33,0,0,0,3.28,0l7.63-7.63a2.32,2.32,0,0,0,0-3.27l-3.64-3.64a27,27,0,0,0,2.19-5.28H583a2.32,2.32,0,0,0,2.32-2.32V347.93A2.31,2.31,0,0,0,583,345.62Z" transform="translate(0.37)" style="fill:none;stroke:#fff;stroke-miterlimit:10;stroke-width:6px"/><path d="M551.77,343.06a10.27,10.27,0,1,1-10.26,10.27,10.29,10.29,0,0,1,10.26-10.27m0-6A16.27,16.27,0,1,0,568,353.33a16.26,16.26,0,0,0-16.27-16.27Z" transform="translate(0.37)" style="fill:#fff"/><use width="73.08" height="73.08" transform="translate(512.1 393.81)" xlink:href="#Cogwheel"/></g></svg>