<svg xmlns="http://www.w3.org/2000/svg" xmlns:xlink="http://www.w3.org/1999/xlink" width="250" height="663" viewBox="0 0 250 663"><defs><filter id="a" x="-28" y="-26" width="310" height="723" filterUnits="userSpaceOnUse"><feOffset dx="2" dy="4" input="SourceAlpha"/><feGaussianBlur stdDeviation="10" result="b"/><feFlood flood-opacity="0.2"/><feComposite operator="in" in2="b"/><feComposite in="SourceGraphic"/></filter><clipPath id="c"><g transform="matrix(1, 0, 0, 1, 0, 0)" filter="url(#a)"><path d="M5,0H250a0,0,0,0,1,0,0V663a0,0,0,0,1,0,0H5a5,5,0,0,1-5-5V5A5,5,0,0,1,5,0Z" transform="translate(2387 814)" fill="#2a2a2a"/></g></clipPath></defs><g transform="translate(-2387 -814)" style="opacity: 0.025;"><ellipse cx="149" cy="148.5" rx="149" ry="148.5" transform="translate(2255 712)" fill="#fff"/><path d="M45.082,0,90.164,77.6H0Z" transform="matrix(1, -0.017, 0.017, 1, 2521.683, 1041.318)" fill="#fff"/><g transform="translate(2451 1182)" fill="none" stroke="#fff" stroke-width="5"><circle cx="14.5" cy="14.5" r="14.5" stroke="none"/><circle cx="14.5" cy="14.5" r="12" fill="none"/></g><g transform="translate(2543 1196)" fill="none" stroke="#fff" stroke-width="5"><ellipse cx="34.5" cy="34" rx="34.5" ry="34" stroke="none"/><ellipse cx="34.5" cy="34" rx="32" ry="31.5" fill="none"/></g><path d="M0,0,390.121-1.5l-1.5,389.259L-1.5,389.259Z" transform="matrix(0.799, 0.602, -0.602, 0.799, 2365.476, 1191.884)" fill="#fff"/><path d="M22.243-.064,44.375,38.717l-44.487.129Z" transform="matrix(0.391, 0.921, -0.921, 0.391, 2461.831, 1051.231)" fill="#fff"/></g></svg>