<svg width="12" height="12" viewBox="0 0 12 12" fill="none" xmlns="http://www.w3.org/2000/svg">
<path fill-rule="evenodd" clip-rule="evenodd" d="M7.24233 1.36356L6 0L4.75767 1.36356L3 0.803848L2.60589 2.60589L0.803848 3L1.36356 4.75767L0 6L1.36356 7.24233L0.803848 9L2.60589 9.39411L3 11.1962L4.75767 10.6364L6 12L7.24233 10.6364L9 11.1962L9.39411 9.39411L11.1962 9L10.6364 7.24233L12 6L10.6364 4.75767L11.1962 3L9.39411 2.60589L9 0.803848L7.24233 1.36356ZM6.96626 2.39388L6 1.33333L5.03374 2.39388L3.66667 1.95855L3.36013 3.36013L1.95855 3.66667L2.39388 5.03374L1.33333 6L2.39388 6.96626L1.95855 8.33333L3.36013 8.63986L3.66667 10.0415L5.03374 9.60612L6 10.6667L6.96626 9.60612L8.33333 10.0415L8.63986 8.63986L10.0415 8.33333L9.60612 6.96626L10.6667 6L9.60612 5.03374L10.0415 3.66667L8.63986 3.36013L8.33333 1.95855L6.96626 2.39388Z" fill="#D9D9D9"/>
</svg>
