<svg width="55" height="53" viewBox="0 0 55 53" fill="none" xmlns="http://www.w3.org/2000/svg">
<path d="M25.637 1.23194C26.3202 -0.410643 28.6471 -0.410649 29.3303 1.23194L35.4786 16.0143C35.7666 16.7068 36.4178 17.1799 37.1654 17.2399L53.1242 18.5193C54.8975 18.6614 55.6166 20.8744 54.2655 22.0318L42.1066 32.4472C41.537 32.9351 41.2883 33.7007 41.4623 34.4302L45.177 50.0033C45.5898 51.7337 43.7073 53.1014 42.1891 52.1741L28.5261 43.8288C27.8861 43.4379 27.0811 43.4379 26.4411 43.8288L12.7781 52.1741C11.2599 53.1014 9.37743 51.7337 9.7902 50.0033L13.505 34.4302C13.679 33.7007 13.4302 32.9351 12.8607 32.4472L0.701719 22.0318C-0.649355 20.8745 0.0696931 18.6614 1.843 18.5193L17.8018 17.2399C18.5494 17.1799 19.2006 16.7068 19.4886 16.0143L25.637 1.23194Z" fill="#D9D9D9"/>
</svg>
